<?xml version="1.0" encoding="utf-8"?>
<!-- Generator: Adobe Illustrator 16.2.0, SVG Export Plug-In . SVG Version: 6.00 Build 0)  -->
<!DOCTYPE svg PUBLIC "-//W3C//DTD SVG 1.1//EN" "http://www.w3.org/Graphics/SVG/1.1/DTD/svg11.dtd">
<svg version="1.1" id="图层_1" xmlns="http://www.w3.org/2000/svg" xmlns:xlink="http://www.w3.org/1999/xlink" x="0px" y="0px"
	 width="200px" height="200px" viewBox="0 0 200 200" enable-background="new 0 0 200 200" xml:space="preserve">
<path fill="#CCCCCC" d="M28.125,178.69c0,8.79,33.346,15.916,74.479,15.916s74.479-7.126,74.479-15.916
	s-33.346-15.915-74.479-15.915S28.125,169.9,28.125,178.69z"/>
<path fill="#EEEEEE" d="M165.625,178.398H42.188c-14.237,0-26.563-12.325-26.563-26.563V22.148H143.75v35.938"/>
<path fill="#303F9F" d="M165.625,183.086H42.188c-16.939,0-31.25-14.311-31.25-31.25V22.148c0-2.589,2.099-4.688,4.688-4.688H143.75
	c2.589,0,4.688,2.099,4.688,4.688v35.938c0,2.589-2.099,4.688-4.688,4.688s-4.688-2.099-4.688-4.688v-31.25H20.313v125
	c0,11.653,10.222,21.875,21.875,21.875h123.438c2.589,0,4.688,2.099,4.688,4.688S168.214,183.086,165.625,183.086z"/>
<path fill="#EEEEEE" d="M143.75,58.086v94.531c0,14.237,7.638,25.781,21.875,25.781s20.313-11.544,20.313-25.781V58.086H143.75z"/>
<path fill="#303F9F" d="M165.625,183.086c-15.888,0-26.563-12.245-26.563-30.469V58.086c0-2.589,2.099-4.688,4.688-4.688h42.188
	c2.589,0,4.688,2.099,4.688,4.688v94.531C190.625,171.411,181.045,183.086,165.625,183.086z M148.438,62.773v89.844
	c0,10.197,4.516,21.094,17.188,21.094c13.596,0,15.625-13.216,15.625-21.094V62.773H148.438z M84.866,72.148h-0.05
	c-1.396-0.022-2.608-0.969-2.969-2.319l-7.098-26.628c-0.444-1.667,0.547-3.379,2.214-3.825c1.666-0.446,3.377,0.542,3.823,2.208
	c0.001,0.002,0.001,0.004,0.002,0.006l4.264,16.001l4.845-16.045c0.398-1.319,1.614-2.222,2.992-2.222h0.063
	c1.401,0.028,2.612,0.985,2.962,2.342l4.083,15.78l4.798-15.9c0.504-1.649,2.244-2.583,3.896-2.089
	c1.652,0.499,2.587,2.243,2.089,3.895l-8.023,26.575c-0.398,1.319-1.613,2.222-2.992,2.222h-0.063
	c-1.401-0.029-2.611-0.986-2.962-2.342l-4.083-15.779l-4.798,15.9C87.459,71.247,86.244,72.149,84.866,72.148z M56.227,72.083
	c-1.726,0-3.125-1.399-3.125-3.125V42.396c-0.001-1.725,1.397-3.125,3.122-3.125c0.001,0,0.002,0,0.003,0h0.013l12.964,0.053
	c1.726,0.004,3.122,1.406,3.119,3.131c-0.003,1.726-1.405,3.123-3.131,3.119h-0.012l-9.827-0.041v23.425
	C59.352,70.684,57.953,72.083,56.227,72.083z"/>
<path fill="#303F9F" d="M69.19,58.086H57.802c-1.726,0-3.125-1.399-3.125-3.125s1.399-3.125,3.125-3.125H69.19
	c1.726,0,3.125,1.399,3.125,3.125S70.917,58.086,69.19,58.086z M69.19,72.148H57.802c-1.726,0-3.125-1.399-3.125-3.125
	s1.399-3.125,3.125-3.125H69.19c1.726,0,3.125,1.399,3.125,3.125S70.917,72.148,69.19,72.148z M121.334,72.148
	c-6.66,0-10.977-4.609-11.157-4.805c-1.167-1.272-1.081-3.249,0.192-4.415c1.268-1.163,3.238-1.082,4.406,0.182
	c0.011,0.011,2.696,2.788,6.558,2.788c3.431,0,5.228-1.539,5.228-3.061c0-2.028-2.05-2.999-6.398-4.59
	c-4.094-1.497-9.698-3.545-9.698-9.361c0-5.719,4.273-9.563,10.638-9.563c5.089,0,8.833,2.396,9.244,2.669
	c1.436,0.958,1.822,2.898,0.865,4.334c-0.953,1.428-2.879,1.82-4.314,0.878c-0.084-0.051-2.602-1.631-5.795-1.631
	c-2.911,0-4.388,1.114-4.388,3.313c0,1.346,2.216,2.256,5.594,3.491c4.435,1.621,10.505,3.841,10.505,10.461
	C132.813,67.464,128.87,72.148,121.334,72.148z M29.664,72.148c-1.726,0-3.125-1.399-3.125-3.125V42.396
	c-0.003-1.725,1.393-3.126,3.118-3.129c1.063-0.002,2.055,0.537,2.631,1.431l11.439,17.678V42.396c0-1.726,1.399-3.125,3.125-3.125
	s3.125,1.399,3.125,3.125v26.563c0,1.386-0.911,2.604-2.241,2.997c-1.328,0.395-2.757-0.134-3.508-1.298L32.789,52.978v16.047
	C32.788,70.75,31.389,72.148,29.664,72.148z"/>
<path fill="#FFFFFF" d="M29.664,81.523h45.313v32.813H29.664V81.523z"/>
<path fill="#303F9F" d="M74.977,117.461H29.664c-1.726,0-3.125-1.398-3.125-3.125V81.523c0-1.726,1.399-3.125,3.125-3.125h45.313
	c1.726,0,3.125,1.399,3.125,3.125v32.813C78.102,116.063,76.703,117.461,74.977,117.461z M32.789,111.211h39.063V84.648H32.789
	V111.211z M129.664,86.211h-43.75c-1.726,0-3.125-1.399-3.125-3.125s1.399-3.125,3.125-3.125h43.75c1.727,0,3.125,1.399,3.125,3.125
	S131.391,86.211,129.664,86.211z M115.602,117.461H85.914c-1.726,0-3.125-1.398-3.125-3.125s1.399-3.125,3.125-3.125h29.688
	c1.727,0,3.125,1.398,3.125,3.125S117.328,117.461,115.602,117.461z M94.328,101.836h-8.414c-1.726,0-3.125-1.399-3.125-3.125
	s1.399-3.125,3.125-3.125h8.414c1.726,0,3.125,1.399,3.125,3.125S96.054,101.836,94.328,101.836z M129.664,101.836h-21.875
	c-1.727,0-3.125-1.399-3.125-3.125s1.398-3.125,3.125-3.125h21.875c1.727,0,3.125,1.399,3.125,3.125
	S131.391,101.836,129.664,101.836z M129.664,133.086h-100c-1.726,0-3.125-1.398-3.125-3.125s1.399-3.125,3.125-3.125h100
	c1.727,0,3.125,1.398,3.125,3.125S131.391,133.086,129.664,133.086z M87.356,148.711H29.664c-1.726,0-3.125-1.398-3.125-3.125
	s1.399-3.125,3.125-3.125h57.692c1.726,0,3.125,1.398,3.125,3.125S89.082,148.711,87.356,148.711z M129.664,148.711h-31.25
	c-1.726,0-3.125-1.398-3.125-3.125s1.399-3.125,3.125-3.125h31.25c1.727,0,3.125,1.398,3.125,3.125S131.391,148.711,129.664,148.711
	z"/>
<path fill="#303F9F" d="M20.313,165.898h126.563v9.375H20.313V165.898z"/>
</svg>
